<svg width="19" height="19" viewBox="0 0 19 19" fill="none" xmlns="http://www.w3.org/2000/svg">
<path d="M15.9428 9.09538H14.8125C14.7908 9.09538 14.77 9.08677 14.7547 9.07144C14.7394 9.05612 14.7308 9.03533 14.7308 9.01365V5.85719C14.7308 5.43602 14.5635 5.03209 14.2656 4.73428C13.9678 4.43646 13.5639 4.26915 13.1427 4.26915H9.9863C9.96462 4.26915 9.94383 4.26054 9.92851 4.24521C9.91318 4.22989 9.90457 4.2091 9.90457 4.18742V3.05708C9.90457 1.94799 9.02596 1.01952 7.91687 1.00031C7.64816 0.995592 7.3812 1.04443 7.13157 1.14398C6.88193 1.24354 6.65462 1.39181 6.4629 1.58015C6.27118 1.76848 6.11888 1.99312 6.0149 2.24094C5.91092 2.48876 5.85733 2.75481 5.85726 3.02357V4.18742C5.85726 4.2091 5.84865 4.22989 5.83332 4.24521C5.81799 4.26054 5.79721 4.26915 5.77553 4.26915H2.61909C2.19008 4.27045 1.77901 4.44144 1.47565 4.7448C1.17229 5.04816 1.00129 5.45924 1 5.88825V8.76437C1 8.78605 1.00861 8.80684 1.02394 8.82216C1.03927 8.83749 1.06005 8.8461 1.08173 8.8461H2.18142C3.38163 8.8461 4.37507 9.88736 4.39183 11.0876C4.40899 12.3082 3.43108 13.4231 2.21411 13.4231H1.08173C1.06005 13.4231 1.03927 13.4317 1.02394 13.447C1.00861 13.4623 1 13.4831 1 13.5048V16.3809C1.00129 16.8099 1.17229 17.221 1.47565 17.5243C1.77901 17.8277 2.19008 17.9987 2.61909 18H5.49519C5.51687 18 5.53766 17.9914 5.55298 17.9761C5.56831 17.9607 5.57692 17.9399 5.57692 17.9183V17.063C5.57692 15.8255 6.58834 14.7602 7.82452 14.7312C9.05457 14.7026 10.1538 15.5611 10.1538 16.7859V17.9183C10.1538 17.9399 10.1625 17.9607 10.1778 17.9761C10.1931 17.9914 10.2139 18 10.2356 18H13.1427C13.5639 18 13.9678 17.8327 14.2656 17.5349C14.5635 17.2371 14.7308 16.8331 14.7308 16.412V13.2244C14.7308 13.2028 14.7394 13.182 14.7547 13.1667C14.77 13.1513 14.7908 13.1427 14.8125 13.1427H15.9763C17.1055 13.1427 18 12.2163 18 11.0831C18 9.94988 17.0519 9.09538 15.9428 9.09538Z" stroke="white" stroke-width="2" stroke-linecap="round" stroke-linejoin="round"/>
</svg>
