<svg width="14" height="12" viewBox="0 0 14 12" fill="none" xmlns="http://www.w3.org/2000/svg">
<path d="M9.33332 3.95834C10.1109 4.9955 10.1109 7.0045 9.33332 8.04167M11.0833 1.91667C13.4097 4.138 13.4237 7.87659 11.0833 10.0833M1.16666 7.72609V4.27334C1.16666 3.9385 1.42799 3.66667 1.74999 3.66667H3.84182C3.91902 3.66639 3.99536 3.65049 4.06624 3.61991C4.13712 3.58933 4.20107 3.54472 4.25424 3.48875L6.00424 1.51242C6.37174 1.12975 6.99999 1.401 6.99999 1.94175V10.0583C6.99999 10.6031 6.36416 10.872 5.99899 10.4818L4.25482 8.5165C4.2015 8.45894 4.1369 8.41298 4.06505 8.38146C3.99319 8.34995 3.91562 8.33357 3.83716 8.33334H1.74999C1.42799 8.33334 1.16666 8.0615 1.16666 7.72609Z" stroke="white" stroke-linecap="round" stroke-linejoin="round"/>
</svg>
