<svg width="8" height="8" viewBox="0 0 8 8" fill="none" xmlns="http://www.w3.org/2000/svg">
<path d="M0.646008 0.646001C0.692454 0.599438 0.74763 0.562495 0.808375 0.537288C0.86912 0.512082 0.934241 0.499107 1.00001 0.499107C1.06578 0.499107 1.1309 0.512082 1.19164 0.537288C1.25239 0.562495 1.30756 0.599438 1.35401 0.646001L4.00001 3.293L6.64601 0.646001C6.6925 0.599513 6.74769 0.562637 6.80842 0.537477C6.86916 0.512318 6.93426 0.499369 7.00001 0.499369C7.06575 0.499369 7.13085 0.512318 7.19159 0.537477C7.25233 0.562637 7.30752 0.599513 7.35401 0.646001C7.4005 0.692489 7.43737 0.747678 7.46253 0.808417C7.48769 0.869157 7.50064 0.934257 7.50064 1C7.50064 1.06574 7.48769 1.13085 7.46253 1.19158C7.43737 1.25232 7.4005 1.30751 7.35401 1.354L4.70701 4L7.35401 6.646C7.4005 6.69249 7.43737 6.74768 7.46253 6.80842C7.48769 6.86916 7.50064 6.93426 7.50064 7C7.50064 7.06574 7.48769 7.13085 7.46253 7.19158C7.43737 7.25232 7.4005 7.30751 7.35401 7.354C7.30752 7.40049 7.25233 7.43737 7.19159 7.46252C7.13085 7.48768 7.06575 7.50063 7.00001 7.50063C6.93426 7.50063 6.86916 7.48768 6.80842 7.46252C6.74769 7.43737 6.6925 7.40049 6.64601 7.354L4.00001 4.707L1.35401 7.354C1.30752 7.40049 1.25233 7.43737 1.19159 7.46252C1.13085 7.48768 1.06575 7.50063 1.00001 7.50063C0.934265 7.50063 0.869164 7.48768 0.808425 7.46252C0.747686 7.43737 0.692496 7.40049 0.646008 7.354C0.599521 7.30751 0.562644 7.25232 0.537485 7.19158C0.512326 7.13085 0.499377 7.06574 0.499377 7C0.499377 6.93426 0.512326 6.86916 0.537485 6.80842C0.562644 6.74768 0.599521 6.69249 0.646008 6.646L3.29301 4L0.646008 1.354C0.599445 1.30756 0.562502 1.25238 0.537296 1.19163C0.512089 1.13089 0.499115 1.06577 0.499115 1C0.499115 0.934234 0.512089 0.869112 0.537296 0.808367C0.562502 0.747622 0.599445 0.692447 0.646008 0.646001Z" fill="white"/>
</svg>
